# xmcd
#
# Track frame offsets:
# 150
# 17797
# 32615
# 49667
# 62770
# 81960
# 103110
# 122277
# 136410
# 155615
# 169382
# 181115
# 200220
# 215777
# 230160
# 237352
# 254500
# 269050
# 287067
# 300117
#
# Disc length: 4221 seconds
#
#
# Revision: 0
# Processed by: cddbd v1.5.1PL2 Copyright (c) Steve Scherf et al.
# Submitted via: FreeRIP 2.945 
#
DISCID=29107b14
DTITLE=Alceu Valença - O Essencial de Alceu Valença
DYEAR=2006
DGENRE=MPB - Nordeste
TTITLE0=Estação da Luz
TTITLE1=Pétalas
TTITLE2=Leque Moleque
TTITLE3=Rubi
TTITLE4=Ladeiras
TTITLE5=No romper da Aurora
TTITLE6=Cheiro de Saudade
TTITLE7=Girassol
TTITLE8=Paixão
TTITLE9=Perfídia
TTITLE10=Bobo da Corte
TTITLE11=De Terezina a São Luiz
TTITLE12=Amor que fica
TTITLE13=Valores do Passado
TTITLE14=O Carnaval da minha Janela
TTITLE15=Diabo Louro
TTITLE16=Me segura senão eu caio
TTITLE17=Roda e avisa
TTITLE18=Chego já
TTITLE19=Bom demais
EXTD=Ripado com Free RIP 2.945 POR Edson Luiz - Godzilla 4.6
EXTT0=
EXTT1=
EXTT2=
EXTT3=
EXTT4=
EXTT5=
EXTT6=
EXTT7=
EXTT8=
EXTT9=
EXTT10=
EXTT11=
EXTT12=
EXTT13=
EXTT14=
EXTT15=
EXTT16=
EXTT17=
EXTT18=
EXTT19=
PLAYORDER=
